<?xml version="1.0" encoding="UTF-8"?>
<svg width="28px" height="33px" viewBox="0 0 28 33" version="1.1" xmlns="http://www.w3.org/2000/svg" xmlns:xlink="http://www.w3.org/1999/xlink">
    <!-- Generator: Sketch 52.4 (67378) - http://www.bohemiancoding.com/sketch -->
    <title>Shape</title>
    <desc>Created with Sketch.</desc>
    <g id="Page-1" stroke="none" stroke-width="1" fill="none" fill-rule="evenodd">
        <g id="todo_expandido-(caso-imposible)" transform="translate(-944.000000, -541.000000)" fill="#FFFFFF" fill-rule="nonzero">
            <g id="BODY" transform="translate(-462.000000, -408.000000)">
                <g id="section_profiles" transform="translate(799.000000, 514.000000)">
                    <g id="section_player" transform="translate(0.000000, 0.572519)">
                        <g id="section_-">
                            <g id="history" transform="translate(593.000000, 410.427481)">
                                <g id="np_history_18126_FFFFFF" transform="translate(13.637037, 24.061069)">
                                    <path d="M23.8026546,25.4697045 L5.20970147,25.4697045 C4.97827488,25.4697045 4.78952174,25.6568147 4.78952174,25.8898842 C4.78952174,26.1213108 4.97827488,26.3100639 5.20970147,26.3100639 L23.8026546,26.3100639 C24.0357241,26.3100639 24.2228343,26.1213108 24.2228343,25.8898842 C24.2228343,25.6568147 24.0357241,25.4697045 23.8026546,25.4697045 Z M12.0048481,6.85574233 C12.0048481,8.3378423 10.8033862,9.54094293 9.3196475,9.54094293 C7.83754753,9.54094293 6.63444691,8.3378423 6.63444691,6.85574233 C6.63444691,5.37200367 7.83754753,4.17054174 9.3196475,4.17054174 C10.8033862,4.17054174 12.0048481,5.37200367 12.0048481,6.85574233 M13.6889285,14.9605892 C13.8661939,14.9605892 14.0089878,14.8177953 14.0089878,14.6421728 L14.0089878,14.4484951 C14.0073465,12.1522969 12.1460789,10.2910268 9.84988071,10.2877494 L8.78632177,10.2877494 C6.49012357,10.2910318 4.62885342,12.1522969 4.62721471,14.4484951 L4.62721471,14.6421728 C4.62721471,14.8177953 4.77000859,14.9605892 4.94563112,14.9605892 L13.6889285,14.9605892 Z M23.2694465,0.103033862 L5.30340155,0.103033862 C2.74950712,0.103033862 0.681424501,2.17275519 0.681424501,4.72501091 L0.681424501,27.9857407 C0.681424501,30.5379964 2.74950712,32.6077177 5.30340155,32.6077177 L23.2694465,32.6077177 C25.823341,32.6077177 27.8914236,30.5379964 27.8914236,27.9857407 L27.8914236,4.72501091 C27.8914236,2.17275519 25.823341,0.103033862 23.2694465,0.103033862 Z M27.0510641,27.9827994 C27.0510641,30.0705885 25.3588743,31.764417 23.2694465,31.764417 L5.30340155,31.764417 C3.2139738,31.764417 1.52178397,30.0705885 1.52178397,27.9827994 L1.52178397,4.72501091 C1.52178397,2.63558316 3.2139738,0.943393326 5.30340155,0.943393326 L23.2694465,0.943393326 C25.3588743,0.943393326 27.0510641,2.63558316 27.0510641,4.72501091 L27.0510641,27.9827994 Z M23.8026546,7.82215572 L16.5545542,7.82215572 C16.3231276,7.82215572 16.1343745,8.00926595 16.1343745,8.24233545 C16.1343745,8.47376204 16.3231276,8.66251518 16.5545542,8.66251518 L23.8026546,8.66251518 C24.0357241,8.66251518 24.2228343,8.47376204 24.2228343,8.24233545 C24.2228343,8.00926595 24.0357241,7.82215572 23.8026546,7.82215572 Z M23.8026546,12.8643125 L16.5545542,12.8643125 C16.3231276,12.8643125 16.1343745,13.0514227 16.1343745,13.2844922 C16.1343745,13.5159188 16.3231276,13.704672 16.5545542,13.704672 L23.8026546,13.704672 C24.0357241,13.704672 24.2228343,13.5159188 24.2228343,13.2844922 C24.2228343,13.0514227 24.0357241,12.8643125 23.8026546,12.8643125 Z M23.8026546,20.4275477 L5.20970147,20.4275477 C4.97827488,20.4275477 4.78952174,20.6146579 4.78952174,20.8477274 C4.78952174,21.079154 4.97827488,21.2679071 5.20970147,21.2679071 L23.8026546,21.2679071 C24.0357241,21.2679071 24.2228343,21.079154 24.2228343,20.8477274 C24.2228343,20.6146579 24.0357241,20.4275477 23.8026546,20.4275477 Z" id="Shape"></path>
                                </g>
                            </g>
                        </g>
                    </g>
                </g>
            </g>
        </g>
    </g>
</svg>