<?xml version="1.0" encoding="UTF-8"?>
<svg width="12px" height="13px" viewBox="0 0 12 13" version="1.1" xmlns="http://www.w3.org/2000/svg" xmlns:xlink="http://www.w3.org/1999/xlink">
    <!-- Generator: Sketch 52.4 (67378) - http://www.bohemiancoding.com/sketch -->
    <title>Shape</title>
    <desc>Created with Sketch.</desc>
    <g id="Page-1" stroke="none" stroke-width="1" fill="none" fill-rule="evenodd">
        <g id="1.-Dashboard_mobile_exp" transform="translate(-302.000000, -212.000000)" fill="#F6BB42" fill-rule="nonzero">
            <g id="filtros" transform="translate(-23.000000, 66.000000)">
                <g id="btn_filter" transform="translate(321.000000, 93.000000)">
                    <g id="title" transform="translate(10.500000, 36.000000) rotate(-90.000000) translate(-10.500000, -36.000000) translate(-19.500000, 27.500000)">
                        <g id="ico_filter" transform="translate(0.000000, 2.000000)">
                            <path d="M5.12736329,6.50016433 C4.91220314,7.22297282 4.2428307,7.74984517 3.44976217,7.74984517 C2.65710164,7.74984517 1.98768119,7.22297282 1.77252105,6.50016433 L0.700020333,6.50016433 C0.423924149,6.50016433 0.19986,6.27797219 0.19986,6.000004 C0.19986,5.72390782 0.423456149,5.49984367 0.700020333,5.49984367 L1.77252105,5.49984367 C1.98768119,4.77703518 2.65705364,4.25016283 3.44976217,4.25016283 C4.2428907,4.25016283 4.91232314,4.77703518 5.12736329,5.49984367 L11.6997677,5.49984367 C11.9758639,5.49984367 12.199928,5.72203581 12.199928,6.000004 C12.199928,6.27610018 11.9763319,6.50016433 11.6997677,6.50016433 L5.12736329,6.50016433 Z M7.27236472,9.7500065 C7.48752486,9.02719802 8.1568973,8.49984567 8.94996583,8.49984567 C9.74262636,8.49984567 10.4120468,9.02718602 10.627207,9.7500065 L11.6997077,9.7500065 C11.9758039,9.7500065 12.199868,9.97173065 12.199868,10.2501668 C12.199868,10.526263 11.9762719,10.7498592 11.6997077,10.7498592 L10.627207,10.7498592 C10.4120468,11.4726676 9.74267436,12.00002 8.94996583,12.00002 C8.1568373,12.00002 7.48740486,11.4726796 7.27236472,10.7498592 L0.699960333,10.7498592 C0.423864149,10.7498592 0.1998,10.528135 0.1998,10.2501668 C0.1998,9.97407065 0.423396149,9.7500065 0.699960333,9.7500065 L7.27236472,9.7500065 Z M7.27236472,1.25016083 C7.48752486,0.527352352 8.1568973,0 8.94996583,0 C9.74262636,0 10.4120468,0.527340352 10.627207,1.25016083 L11.6997077,1.25016083 C11.9758039,1.25016083 12.199868,1.47188498 12.199868,1.74985317 C12.199868,2.02594935 11.9762719,2.2500135 11.6997077,2.2500135 L10.627207,2.2500135 C10.4120468,2.97282198 9.74267436,3.50017433 8.94996583,3.50017433 C8.1568373,3.50017433 7.48740486,2.97283398 7.27236472,2.2500135 L0.699960333,2.2500135 C0.423864149,2.2500135 0.1998,2.02828935 0.1998,1.74985317 C0.1998,1.47375698 0.423396149,1.25016083 0.699960333,1.25016083 L7.27236472,1.25016083 Z M8.94996583,2.49984167 C9.36387011,2.49984167 9.69996633,2.16421344 9.69996633,1.74984117 C9.69996633,1.33593689 9.36387011,0.999840667 8.94996583,0.999840667 C8.53559356,0.999840667 8.19996533,1.33593689 8.19996533,1.74984117 C8.19996533,2.16421344 8.53559356,2.49984167 8.94996583,2.49984167 Z M8.94996583,11.0001673 C9.36387011,11.0001673 9.69996633,10.6640711 9.69996633,10.2501668 C9.69996633,9.83579456 9.36387011,9.50016633 8.94996583,9.50016633 C8.53559356,9.50016633 8.19996533,9.83579456 8.19996533,10.2501668 C8.19996533,10.6640711 8.53559356,11.0001673 8.94996583,11.0001673 Z M3.44964217,5.2500035 C3.03573789,5.2500035 2.69964167,5.58563172 2.69964167,6.000004 C2.69964167,6.41437628 3.03573789,6.7500045 3.44964217,6.7500045 C3.86401444,6.7500045 4.19964267,6.41437628 4.19964267,6.000004 C4.19964267,5.58563172 3.86401444,5.2500035 3.44964217,5.2500035 Z" id="Shape"></path>
                        </g>
                    </g>
                </g>
            </g>
        </g>
    </g>
</svg>