<?xml version="1.0" encoding="UTF-8"?>
<svg width="21px" height="20px" viewBox="0 0 21 20" version="1.1" xmlns="http://www.w3.org/2000/svg" xmlns:xlink="http://www.w3.org/1999/xlink">
    <!-- Generator: Sketch 52.4 (67378) - http://www.bohemiancoding.com/sketch -->
    <title>Filter</title>
    <desc>Created with Sketch.</desc>
    <g id="Page-1" stroke="none" stroke-width="1" fill="none" fill-rule="evenodd">
        <g id="1.-Dashboard_mobile_exp" transform="translate(-14.000000, -83.000000)" fill="#F6BB42" fill-rule="nonzero">
            <g id="filtros" transform="translate(-23.000000, 66.000000)">
                <g id="title" transform="translate(37.000000, 16.000000)">
                    <g id="ico_filter" transform="translate(0.000000, 1.000000)">
                        <path d="M8.4124,10.8336 C8.0538,12.03828 6.93818,12.9164 5.6164,12.9164 C4.2953,12.9164 3.1796,12.03828 2.821,10.8336 L1.0335,10.8336 C0.57334,10.8336 0.1999,10.46328 0.1999,10 C0.1999,9.53984 0.57256,9.1664 1.0335,9.1664 L2.821,9.1664 C3.1796,7.96172 4.29522,7.0836 5.6164,7.0836 C6.93828,7.0836 8.054,7.96172 8.4124,9.1664 L19.3664,9.1664 C19.82656,9.1664 20.2,9.53672 20.2,10 C20.2,10.46016 19.82734,10.8336 19.3664,10.8336 L8.4124,10.8336 Z M11.9874,16.25 C12.346,15.04532 13.46162,14.1664 14.7834,14.1664 C16.1045,14.1664 17.2202,15.0453 17.5788,16.25 L19.3663,16.25 C19.82646,16.25 20.1999,16.61954 20.1999,17.0836 C20.1999,17.54376 19.82724,17.91642 19.3663,17.91642 L17.5788,17.91642 C17.2202,19.1211 16.10458,20.00002 14.7834,20.00002 C13.46152,20.00002 12.3458,19.12112 11.9874,17.91642 L1.0334,17.91642 C0.57324,17.91642 0.1998,17.54688 0.1998,17.0836 C0.1998,16.62344 0.57246,16.25 1.0334,16.25 L11.9874,16.25 Z M11.9874,2.0836 C12.346,0.87892 13.46162,7.10542736e-15 14.7834,7.10542736e-15 C16.1045,7.10542736e-15 17.2202,0.8789 17.5788,2.0836 L19.3663,2.0836 C19.82646,2.0836 20.1999,2.45314 20.1999,2.91642 C20.1999,3.37658 19.82724,3.75002 19.3663,3.75002 L17.5788,3.75002 C17.2202,4.9547 16.10458,5.83362 14.7834,5.83362 C13.46152,5.83362 12.3458,4.95472 11.9874,3.75002 L1.0334,3.75002 C0.57324,3.75002 0.1998,3.38048 0.1998,2.91642 C0.1998,2.45626 0.57246,2.0836 1.0334,2.0836 L11.9874,2.0836 Z M14.7834,4.1664 C15.47324,4.1664 16.0334,3.60702 16.0334,2.9164 C16.0334,2.22656 15.47324,1.6664 14.7834,1.6664 C14.09278,1.6664 13.5334,2.22656 13.5334,2.9164 C13.5334,3.60702 14.09278,4.1664 14.7834,4.1664 Z M14.7834,18.3336 C15.47324,18.3336 16.0334,17.77344 16.0334,17.0836 C16.0334,16.39298 15.47324,15.8336 14.7834,15.8336 C14.09278,15.8336 13.5334,16.39298 13.5334,17.0836 C13.5334,17.77344 14.09278,18.3336 14.7834,18.3336 Z M5.6162,8.75 C4.92636,8.75 4.3662,9.30938 4.3662,10 C4.3662,10.69062 4.92636,11.25 5.6162,11.25 C6.30682,11.25 6.8662,10.69062 6.8662,10 C6.8662,9.30938 6.30682,8.75 5.6162,8.75 Z" id="Filter"></path>
                    </g>
                </g>
            </g>
        </g>
    </g>
</svg>