<?xml version="1.0" encoding="UTF-8"?>
<svg width="38px" height="30px" viewBox="0 0 38 30" version="1.1" xmlns="http://www.w3.org/2000/svg" xmlns:xlink="http://www.w3.org/1999/xlink">
    <!-- Generator: Sketch 52.4 (67378) - http://www.bohemiancoding.com/sketch -->
    <title>Shape</title>
    <desc>Created with Sketch.</desc>
    <g id="Page-1" stroke="none" stroke-width="1" fill="none" fill-rule="evenodd">
        <g id="todo_expandido-(caso-imposible)" transform="translate(-441.000000, -605.000000)" fill="#FFFFFF" fill-rule="nonzero">
            <g id="BODY" transform="translate(-462.000000, -408.000000)">
                <g id="section_profiles" transform="translate(799.000000, 514.000000)">
                    <g id="section_player" transform="translate(0.000000, 0.572519)">
                        <g id="section_-">
                            <g id="valuacion" transform="translate(46.000000, 470.000000)">
                                <g id="ico_info" transform="translate(58.000000, 28.000000)">
                                    <g id="np_image_1696510_FFFFFF" transform="translate(0.000000, 0.427481)">
                                        <g id="np_image_1034948_FFFFFF">
                                            <path d="M35,0 L3,0 C1.34375,0 0,1.34375 0,3 L0,28 C0,28.53125 0.21094,29.03905 0.58595,29.41405 C0.96096,29.78905 1.46875,30 2,30 L36,30 C36.53125,30 37.03905,29.78906 37.41405,29.41405 C37.78905,29.03904 38,28.53125 38,28 L38,3 C38,1.34375 36.65625,0 35,0 Z M3,2 L35,2 C35.265625,2 35.51955,2.10547 35.70705,2.29297 C35.89455,2.48047 36.00002,2.734375 36.00002,3.00002 L36.00002,22.24402 L27.47452,13.72052 C27.09952,13.343565 26.58977,13.13262 26.06047,13.13262 C25.52922,13.13262 25.01947,13.34356 24.64447,13.72052 L20.93352,17.43147 L13.47452,9.97047 C13.09952,9.593515 12.58977,9.38257 12.06047,9.38257 C11.52922,9.38257 11.01947,9.59351 10.64447,9.97047 L1.99997,18.61897 L1.99997,2.99997 C1.99997,2.44722 2.447235,1.99997 2.99997,1.99997 L3,2 Z M3,28 C2.44725,28 2,27.552735 2,27 L2,21.449 L12.0605,11.3845 L19.5,18.8455 C19.875,19.2205 20.38475,19.43145 20.91405,19.43145 C21.4453,19.43145 21.95505,19.22051 22.33005,18.8455 L26.041,15.13455 L36,25.07405 L36,26.99985 C36,27.265475 35.89453,27.5194 35.70703,27.7069 C35.51953,27.8944 35.265625,27.99987 34.99998,27.99987 L3,28 Z M30.711,10.414 C32.05865,10.414 33.27545,9.6015 33.7911,8.3554 C34.3067,7.1093 34.02157,5.6757 33.06845,4.7226 C32.11535,3.7675 30.6798,3.48235 29.4337,3.998 C28.1876,4.5156 27.3751,5.7304 27.3751,7.08005 C27.3751,8.92185 28.8673,10.41405 30.71105,10.41405 L30.711,10.414 Z M30.711,5.74995 C31.25005,5.74995 31.7364,6.07612 31.9434,6.57415 C32.15043,7.072195 32.035195,7.6464 31.65434,8.02925 C31.27153,8.41011 30.69729,8.525345 30.19924,8.31831 C29.701195,8.11128 29.37504,7.62496 29.37504,7.08591 C29.37504,6.73044 29.515665,6.39061 29.765665,6.14061 C30.015665,5.89061 30.355515,5.749985 30.710965,5.749985 L30.711,5.74995 Z" id="Shape"></path>
                                        </g>
                                    </g>
                                </g>
                            </g>
                        </g>
                    </g>
                </g>
            </g>
        </g>
    </g>
</svg>