<?xml version="1.0" encoding="UTF-8"?>
<svg width="37px" height="32px" viewBox="0 0 37 32" version="1.1" xmlns="http://www.w3.org/2000/svg" xmlns:xlink="http://www.w3.org/1999/xlink">
    <!-- Generator: Sketch 52.4 (67378) - http://www.bohemiancoding.com/sketch -->
    <title>Shape</title>
    <desc>Created with Sketch.</desc>
    <g id="Page-1" stroke="none" stroke-width="1" fill="none" fill-rule="evenodd">
        <g id="Profile_mobile" transform="translate(-140.000000, -207.000000)" fill="#FFFFFF" fill-rule="nonzero" stroke="#FFFFFF" stroke-width="0.5">
            <g id="BODY" transform="translate(-219.000000, -140.000000)">
                <g id="section_profiles" transform="translate(216.000000, 209.000000)">
                    <g id="section_player" transform="translate(0.000000, 0.572519)">
                        <g id="section_-">
                            <g id="Group-2" transform="translate(25.000000, 117.000000)">
                                <g id="Historial" transform="translate(101.000000, 0.000000)">
                                    <g id="ico_info" transform="translate(17.266667, 20.966667)">
                                        <g id="np_image_1696510_FFFFFF" transform="translate(0.000000, 0.527226)">
                                            <g id="np_image_1034948_FFFFFF">
                                                <g id="np_growth-trajectory_1517972_FFFFFF">
                                                    <path d="M25.1088972,0 C24.8258574,0.0260957917 24.6170901,0.27902625 24.6431854,0.562091667 C24.6692806,0.845157083 24.9222116,1.05389875 25.205277,1.02780347 L30.0390187,1.02780347 L17.9944909,11.1452479 L15.2483715,8.84878125 C15.0476362,8.69020028 14.7585737,8.70425 14.5738923,8.88089931 L7.37944786,15.5614549 C7.26502536,15.6497821 7.19276231,15.7842719 7.18071675,15.9288032 C7.17067999,16.0753438 7.22086432,16.2178657 7.3232387,16.3222468 C7.42360633,16.4286372 7.56412411,16.4868506 7.70865536,16.4808278 C7.85519592,16.4768133 7.99169508,16.4105689 8.08604508,16.300165 L14.9433784,9.92485944 L17.6894979,12.2213261 C17.8801969,12.3799071 18.157219,12.3799071 18.3478923,12.2213261 L30.8580034,1.718465 L30.8580034,6.68067889 C30.8559962,6.81918736 30.910194,6.95167306 31.0065481,7.04802722 C31.1029023,7.14639069 31.2333838,7.20259472 31.3718923,7.20259472 C31.5104008,7.20259472 31.6408823,7.14638556 31.7372365,7.04802722 C31.8335906,6.95167306 31.8877905,6.81918736 31.8857812,6.68067889 L31.8857812,0.514012222 C31.8857812,0.2309725 31.654932,0.000123333333 31.3718923,0.000123333333 L25.2052256,0.000123333333 L25.1570486,0.000123333333 L25.1088715,0.000123333333 L25.1088972,0 Z M28.2404333,10.2618472 C28.218352,10.2658617 28.1962707,10.271884 28.1761972,10.2779063 C27.9373211,10.3321061 27.7686987,10.5468963 27.7747215,10.7917951 L27.7747215,28.7779063 L18.5247215,28.7779063 L18.5247215,15.930684 C18.528736,15.7721031 18.4584761,15.621549 18.3360266,15.5211763 C18.2155865,15.4208086 18.0529869,15.3826678 17.8984194,15.4167951 C17.6595433,15.470995 17.4909209,15.6857851 17.4969437,15.930684 L17.4969437,28.7779063 L8.2469437,28.7779063 L8.2469437,20.0417951 C8.2509582,19.8832142 8.18069828,19.7326601 8.05824883,19.6322874 C7.9378087,19.5319197 7.77520911,19.4937789 7.62064161,19.5279063 C7.3817655,19.5821061 7.21314314,19.7968963 7.21916592,20.0417951 L7.21916592,28.7779063 L0.538610363,28.7779063 L0.490433279,28.7779063 C0.207393557,28.791958 -0.0134193597,29.0328414 0.000635501407,29.3158965 C0.0146903625,29.5989517 0.25557064,29.8197492 0.538625779,29.8056943 L35.4830702,29.8056943 C35.6215787,29.8077016 35.7540644,29.7535038 35.8504186,29.6571496 C35.948782,29.5607954 36.0049861,29.4303139 36.0049861,29.2918054 C36.0049861,29.1532969 35.9487769,29.0228154 35.8504186,28.9264613 C35.7540644,28.8301071 35.6215787,28.7759072 35.4830702,28.7779165 L28.8025147,28.7779165 L28.8025147,10.7918054 C28.8085369,10.6432607 28.7483148,10.5007336 28.6419244,10.400366 C28.5335247,10.297989 28.3869893,10.2478026 28.2404487,10.2618575 L28.2404333,10.2618472 Z" id="Shape"></path>
                                                </g>
                                            </g>
                                        </g>
                                    </g>
                                </g>
                            </g>
                        </g>
                    </g>
                </g>
            </g>
        </g>
    </g>
</svg>