<?xml version="1.0" encoding="UTF-8"?>
<svg width="30px" height="30px" viewBox="0 0 30 30" version="1.1" xmlns="http://www.w3.org/2000/svg" xmlns:xlink="http://www.w3.org/1999/xlink">
    <!-- Generator: Sketch 52.4 (67378) - http://www.bohemiancoding.com/sketch -->
    <title>Shape</title>
    <desc>Created with Sketch.</desc>
    <g id="Page-1" stroke="none" stroke-width="1" fill="none" fill-rule="evenodd">
        <g id="todo_expandido-(caso-imposible)" transform="translate(-648.000000, -126.000000)" fill="#FFFFFF" fill-rule="nonzero">
            <g id="BODY" transform="translate(-462.000000, -408.000000)">
                <g id="section_profiles" transform="translate(799.000000, 514.000000)">
                    <g id="section_player" transform="translate(0.000000, 0.572519)">
                        <g id="section_-">
                            <g id="Perfil" transform="translate(293.000000, 0.000000)">
                                <g id="ico_info" transform="translate(18.000000, 19.061069)">
                                    <path d="M8.70850029,7.8311744 L19.8929191,7.8311744 C20.5759318,7.82749565 21.2319479,8.09726619 21.7150919,8.5803914 C22.198236,9.06353544 22.469206,9.71955156 22.4667574,10.4025642 L22.4667574,17.7980489 C22.4667574,18.0580068 22.6776695,18.2689189 22.9376275,18.2689189 L25.169363,18.2689189 C26.1699619,18.2689189 26.9804861,17.4583946 26.9804861,16.4577958 L26.9804861,5.07466987 C26.9804861,4.07529532 26.1699619,3.26354679 25.169363,3.26354679 L10.0487847,3.26354679 C9.04818592,3.26354679 8.23766165,4.07529532 8.23766165,5.07466987 L8.23766165,7.37260978 C8.24379269,7.62766437 8.45224968,7.83120579 8.70853168,7.83120579 L8.70850029,7.8311744 Z M9.17937031,5.06236447 C9.17937031,4.58170034 9.56808922,4.19298144 10.0487533,4.19298144 L25.1533221,4.19298144 C25.3838538,4.19298144 25.6057968,4.28494863 25.7688748,4.44803604 C25.9319622,4.61112344 26.022702,4.83185789 26.022702,5.06236447 L26.022702,16.4602443 C26.022702,16.9409085 25.6339831,17.3308516 25.1533189,17.3308516 L23.4084002,17.3308516 L23.4084002,10.402784 C23.4108525,9.46961375 23.0417494,8.57448982 22.3808362,7.91476953 C21.7211159,7.25504923 20.825992,6.8859813 19.8928218,6.88965408 L9.179273,6.88965408 L9.17937031,5.06236447 Z M3.49942213,26.257794 L6.1076026,26.257794 L6.1076026,29.284107 L6.10882875,29.284107 C6.11005489,29.7218592 6.37492054,30.1166994 6.77956741,30.2834816 C7.18423311,30.4514754 7.6501747,30.3595082 7.96041526,30.0504982 L11.7531164,26.2577971 L19.8928896,26.2577971 C20.8235799,26.2614758 21.7175109,25.8935948 22.3772312,25.2375787 C23.0369515,24.5803069 23.4072437,23.6888558 23.4084994,22.7581655 L23.4084994,21.1885987 L25.1693649,21.1885987 C26.418897,21.1885987 27.6156917,20.6919878 28.498416,19.8091065 C29.3825216,18.9262252 29.8779082,17.7282063 29.8779082,16.4800554 L29.8779082,5.07495553 C29.8779082,3.8266477 29.3825216,2.62862878 28.498416,1.74590444 C27.6155347,0.863023136 26.4187401,0.366412214 25.1693649,0.366412214 L10.0487866,0.366412214 C8.79925452,0.366412214 7.6012356,0.863023136 6.71847987,1.74590444 C5.83572413,2.62878574 5.34021191,3.82680465 5.34021191,5.07495553 L5.34021191,6.8897514 L3.49964375,6.8897514 C2.57017771,6.89097754 1.67869518,7.26129924 1.0214548,7.91976389 C0.365438677,8.57948419 -0.00243637921,9.47215958 1.21449276e-05,10.4028813 L1.21449276e-05,22.7581969 C0.00123829048,24.6907103 1.56835464,26.2567612 3.49951819,26.2577029 L3.49942213,26.257794 Z M0.941530577,10.4026584 C0.939077972,9.72209426 1.20762237,9.06852666 1.68707479,8.58538262 C2.16773891,8.10346284 2.82011364,7.83249284 3.49942213,7.83126857 L5.80718753,7.83126857 C6.06714545,7.83126857 6.27805755,7.62035647 6.27805755,7.36039855 L6.27805755,5.07473265 C6.27805755,2.9950567 7.96411755,1.30777243 10.0450178,1.30777243 L25.1533535,1.30777243 C27.2342537,1.30777243 28.9203137,2.9950567 28.9203137,5.07473265 L28.9203137,16.4603699 C28.9203137,18.5412701 27.2342537,20.2273301 25.1533535,20.2273301 L22.9216179,20.2273301 C22.6665633,20.2359138 22.4642461,20.4468246 22.4666947,20.7018729 L22.4666947,22.7582565 C22.4654685,23.4388207 22.1944721,24.091164 21.7113563,24.5718281 C21.2282123,25.051268 20.5734204,25.3198209 19.8928563,25.3161481 L11.5521786,25.3161481 C11.4209722,25.3161481 11.2958966,25.3713278 11.2063716,25.466974 L11.165905,25.5049858 L7.29598124,29.3846409 C7.25429041,29.4251075 7.19297999,29.4361415 7.14025196,29.4140703 C7.08752394,29.3932246 7.05196383,29.3417227 7.05073643,29.2840913 L7.05073643,25.7867827 C7.05073643,25.5268247 6.83982433,25.3159126 6.57986641,25.3159126 L3.49959164,25.3159126 C2.08820582,25.3146862 0.942924352,24.1706312 0.94170009,22.7580211 L0.941530577,10.4026584 Z M15.0211722,17.656882 C14.8433686,16.7605025 14.275628,15.9904416 13.4736736,15.5563622 C13.0812819,15.3479049 12.6778404,15.1627463 12.2646049,15.0008926 L12.1113273,14.9383547 C11.9102281,14.8611038 11.7226084,14.7544204 11.5521848,14.6244414 L11.5337914,14.6085006 L11.5656724,14.5925594 L11.564446,14.5925594 C11.6355662,14.5668088 11.7091412,14.5545476 11.7839405,14.5557719 C12.2425365,14.5275687 12.6999396,14.6183097 13.1119509,14.8194089 C13.3596474,14.9628767 13.6588507,14.9874028 13.9249237,14.8843984 C14.1738476,14.7593227 14.3553303,14.5287973 14.4178618,14.2565717 C14.4865304,14.0456596 14.5466165,13.8322864 14.6066996,13.628745 L14.6753681,13.3871792 C14.826194,12.9175335 14.5895316,12.4110971 14.132141,12.225951 C13.7716429,12.0653152 13.3914939,11.9488251 13.002775,11.880144 C13.002775,11.0487759 12.791866,10.65268 11.787585,10.65268 L11.3951933,10.65268 C11.1254225,10.6257033 10.858119,10.722576 10.6668202,10.9150928 C10.476755,11.1076095 10.3823362,11.3761687 10.412993,11.6446902 L10.412993,11.9340775 L10.412993,12.0505676 C9.15733956,12.5091636 8.46330853,13.4092159 8.38850298,14.658748 C8.3222861,15.7451708 8.82747941,16.6207065 9.88571271,17.2546545 C10.242538,17.4582085 10.6140859,17.6323237 10.999132,17.7758135 C11.1499579,17.8358996 11.3130453,17.8947584 11.4454854,17.9609721 C11.5865015,18.0186035 11.7201596,18.0958575 11.8403256,18.1902764 C11.8881471,18.2209319 11.9188039,18.2724338 11.922483,18.3288409 C11.922483,18.3668526 11.8758857,18.4036402 11.8121236,18.4318421 C11.6147004,18.5139995 11.3976638,18.5409772 11.1842969,18.5103205 C10.7465447,18.4649506 10.3210352,18.3386475 9.9286435,18.1399969 C9.77045942,18.0480297 9.59143778,17.9965291 9.40748455,17.9891709 C9.1401685,17.9891709 8.77965785,18.1117918 8.59818454,18.6991488 C8.51602714,18.9591067 8.44490693,19.2203077 8.37255932,19.4839321 C8.26587901,19.7365351 8.27078233,20.0222308 8.38482172,20.2723883 C8.49886016,20.5213122 8.71100908,20.712589 8.97218499,20.7984443 C9.39402175,20.9946401 9.84279228,21.130753 10.3026439,21.2043343 L10.3026439,21.5587111 C10.2989652,21.811314 10.3958385,22.0540977 10.5724148,22.2343468 C10.7502185,22.4146021 10.9917716,22.5163791 11.2443777,22.5163791 L12.0107658,22.5163791 C12.2584622,22.5188314 12.4975826,22.4195085 12.6717103,22.2417049 C12.8458381,22.0639012 12.9390264,21.822348 12.930444,21.574639 L12.930444,21.3453347 L12.930444,21.0314214 C13.5006362,20.8499418 14.0070726,20.5065896 14.3871903,20.0418723 C14.9438842,19.382152 15.1756465,18.5066477 15.0211383,17.6568528 L15.0211722,17.656882 Z M13.6772464,19.445937 C13.3854043,19.8015381 12.9893367,20.0553684 12.5442075,20.1706374 C12.2021048,20.2343995 11.9654141,20.5495308 12.0009805,20.896562 L12.0009805,21.3294171 L12.0009805,21.5648521 L11.2762801,21.5648521 C11.275054,21.5550423 11.275054,21.5464587 11.2762801,21.5366489 L11.2762801,21.0338853 C11.2787327,20.8769286 11.2419474,20.7211993 11.1659207,20.5826348 C11.1340397,20.5262277 11.0898941,20.4771788 11.037166,20.4379396 C10.9096387,20.3582339 10.7637192,20.3116397 10.6128807,20.3030542 C10.1898197,20.2466471 9.77658419,20.130157 9.38541676,19.9547987 C9.34004686,19.9327265 9.29590123,19.9069772 9.25421039,19.878772 C9.2615679,19.8297231 9.27137769,19.7819015 9.28609143,19.7353042 C9.35475998,19.4839287 9.42465593,19.2325406 9.50313426,18.984863 L9.50190812,18.984863 C9.99239773,19.2337868 10.524575,19.3932015 11.0714749,19.4520602 C11.4515926,19.5035608 11.8390872,19.4508341 12.1922397,19.3012343 C12.5515135,19.1638972 12.8077924,18.8401583 12.8593056,18.4588164 C12.9108062,18.0762188 12.7501705,17.6973254 12.4399487,17.4680431 C12.2498836,17.3184445 12.037763,17.1958206 11.812122,17.1038408 C11.6551654,17.0351723 11.4982087,16.9689554 11.3351307,16.9064176 C10.997925,16.7801177 10.6705134,16.6280643 10.3566,16.4514943 C9.61228005,15.9928983 9.2824199,15.453344 9.32658751,14.7372449 C9.38054294,13.8641891 9.84404228,13.2804986 10.7453189,12.9506385 C11.225983,12.7752896 11.3510775,12.602383 11.3547503,12.1033235 L11.3547503,11.912031 L11.3547503,11.6643345 L11.3547503,11.595666 L11.7937267,11.5944395 C11.8820148,11.5907608 11.9690756,11.5907608 12.0573637,11.5944395 L12.0573637,11.9365423 C12.0573637,12.5018375 12.2302609,12.7029304 12.7918582,12.7900099 L12.7918582,12.7912361 C13.1168213,12.8451915 13.4331831,12.9408346 13.7335982,13.0769475 L13.7581224,13.0769475 L13.7581224,13.0953406 L13.6894538,13.3405854 C13.6330468,13.5380086 13.5766428,13.7366499 13.5104259,13.9438955 L13.5104259,13.9426693 C12.9549562,13.6728985 12.3381479,13.5515019 11.7213709,13.5882925 C11.5337575,13.5931974 11.3485988,13.632435 11.1756954,13.7047826 C10.8544364,13.8323099 10.6238985,14.1192424 10.5699368,14.4613766 C10.5257943,14.8120806 10.6778445,15.1591118 10.964777,15.3651017 C11.2038911,15.5490361 11.4687649,15.6986347 11.7495604,15.8077824 L11.906517,15.8739992 C12.2866347,16.0211461 12.6581826,16.1915854 13.0174878,16.3816599 C13.575406,16.6820844 13.9702776,17.2154765 14.0941164,17.8359577 C14.2020241,18.4073742 14.0487465,18.9984102 13.6772081,19.4459879 L13.6772464,19.445937 Z" id="Shape"></path>
                                </g>
                            </g>
                        </g>
                    </g>
                </g>
            </g>
        </g>
    </g>
</svg>