<?xml version="1.0" encoding="UTF-8"?>
<svg width="43px" height="46px" viewBox="0 0 43 46" version="1.1" xmlns="http://www.w3.org/2000/svg" xmlns:xlink="http://www.w3.org/1999/xlink">
    <!-- Generator: Sketch 52.4 (67378) - http://www.bohemiancoding.com/sketch -->
    <title>np_world-cup_1777475_FFFFFF</title>
    <desc>Created with Sketch.</desc>
    <defs>
        <linearGradient x1="0%" y1="6.79995888%" x2="99.0540462%" y2="100%" id="linearGradient-1">
            <stop stop-color="#438AD0" offset="0%"></stop>
            <stop stop-color="#1669D2" offset="48.4376835%"></stop>
            <stop stop-color="#326CCC" offset="100%"></stop>
        </linearGradient>
        <filter x="-35.7%" y="-30.6%" width="171.4%" height="161.5%" filterUnits="objectBoundingBox" id="filter-2">
            <feMorphology radius="1.5" operator="dilate" in="SourceAlpha" result="shadowSpreadOuter1"></feMorphology>
            <feOffset dx="0" dy="0" in="shadowSpreadOuter1" result="shadowOffsetOuter1"></feOffset>
            <feGaussianBlur stdDeviation="2" in="shadowOffsetOuter1" result="shadowBlurOuter1"></feGaussianBlur>
            <feComposite in="shadowBlurOuter1" in2="SourceAlpha" operator="out" result="shadowBlurOuter1"></feComposite>
            <feColorMatrix values="0 0 0 0 0.435294118   0 0 0 0 0.639215686   0 0 0 0 0.894117647  0 0 0 0.6 0" type="matrix" in="shadowBlurOuter1" result="shadowMatrixOuter1"></feColorMatrix>
            <feMerge>
                <feMergeNode in="shadowMatrixOuter1"></feMergeNode>
                <feMergeNode in="SourceGraphic"></feMergeNode>
            </feMerge>
        </filter>
    </defs>
    <g id="Symbols" stroke="none" stroke-width="1" fill="none" fill-rule="evenodd">
        <g id="btn_primary" transform="translate(-11.000000, -1.000000)" fill-rule="nonzero">
            <g id="btn-primary">
                <g id="BG">
                    <g id="np_world-cup_1777475_FFFFFF" filter="url(#filter-2)" transform="translate(15.000000, 4.427481)">
                        <path d="M16.026535,21.1148307 C15.2125428,20.7326944 14.3205153,20.548339 13.4218111,20.5751554 C12.8736071,20.5416349 12.3553415,20.8299115 12.0895534,21.3176487 C11.783897,22.0316522 12.3187946,22.5612445 12.818791,22.9819406 C13.3005267,23.3959176 13.6493683,23.9456586 13.8221519,24.5607631 C14.0148462,25.1792143 14.5746513,25.8429317 15.2856452,25.4591349 C15.5614015,25.2596894 15.777332,24.9881527 15.9119271,24.6730918 L16.5182643,23.6305978 C16.7823897,23.2736046 16.9485009,22.851248 17,22.4070822 C16.9601318,21.8187941 16.5780603,21.3109553 16.026535,21.1148736 L16.026535,21.1148307 Z M15.7474574,22.8193687 L14.8703565,24.327782 L14.8703565,24.3294579 C14.7341412,23.8316592 14.5165266,23.3590465 14.2274894,22.9333303 C14.061374,22.6919825 13.8686754,22.472431 13.6527066,22.2763493 C13.435092,22.1271813 13.240735,21.9478502 13.0762653,21.7416941 C13.3736163,21.416546 14.4450955,21.74337 14.7839435,21.827172 C15.1178414,21.8908621 15.4384627,22.0098584 15.7308297,22.1808142 C16.0182126,22.3735578 15.9085761,22.5411583 15.7474413,22.8193884 L15.7474574,22.8193687 Z" id="Shape" fill="#77B2FB"></path>
                        <path d="M23.5000475,0.572519084 C20.4506557,0.575452007 17.5284282,1.73543929 15.3713451,3.79875265 C13.2157534,5.86060188 12.0030614,8.65586008 12,11.5724521 C12,11.9156031 12.0153315,12.251426 12.045995,12.55645 C12.045995,12.5740475 12.0490611,12.591645 12.0521275,12.6092407 C12.2437688,14.5523089 12.9735584,16.4103083 14.1663123,17.9926787 C14.1755113,18.0073431 14.1862434,18.0205411 14.1985085,18.0337415 C15.834375,20.1879801 18.2320498,21.7042776 20.9456729,22.2995717 C21.0989844,22.3333004 21.2522998,22.36263 21.405623,22.3875613 L21.407156,22.3875613 C22.7900284,22.6339268 24.208185,22.6339268 25.5910181,22.3890276 C25.7458642,22.3626315 25.9007103,22.334769 26.0524989,22.299574 C28.7646306,21.7056689 31.1594795,20.1922621 32.7953461,18.0408766 C32.8076111,18.0262122 32.8198762,18.0115474 32.8428717,17.9807503 C34.029503,16.4043114 34.7546926,14.5536326 34.9463418,12.6209634 C34.9494082,12.6033658 34.9524743,12.5872347 34.9524743,12.5696368 C34.98467,12.2528811 35,11.9170545 35,11.5724619 C34.9969335,8.65568213 33.7842074,5.86053656 31.6286549,3.79876241 C29.4715326,1.73544906 26.5495405,0.575494616 23.4999525,0.572528845 L23.5000475,0.572519084 Z M33.7108689,11.2497086 L31.5721539,9.102753 L32.0366961,6.21090077 C33.073085,7.70816476 33.6526245,9.45323959 33.7108689,11.2497086 Z M27.3161536,10.6894782 L30.6767839,9.98411265 L33.6173403,12.9375703 L33.6158073,12.9375703 C33.4103663,14.3585877 32.8753108,15.7179621 32.0504699,16.9177105 L28.3985391,17.2549975 L26.1478882,14.0082663 L27.3161536,10.6894782 Z M21.907354,14.7120401 L25.0947426,14.7120401 L27.317802,17.9221309 L25.3002071,21.1908613 C24.1089446,21.3946999 22.8901299,21.3946999 21.7003981,21.1908613 L19.6843339,17.9206667 L21.907354,14.7120401 Z M16.3235073,9.98257345 L19.6841376,10.687939 L20.8539313,14.0080261 L18.6032804,17.2547572 L14.9513497,16.9174702 L14.9498167,16.9174702 C14.1249757,15.7193737 13.5883738,14.3584976 13.3829485,12.9373301 L16.3235073,9.98257345 Z M22.0235288,13.4815453 L20.9365489,10.3960921 L23.3496875,8.74487076 L23.3496875,8.83579229 L23.5091335,8.68328032 L23.6501838,8.79619737 L23.6501838,8.74487076 L26.0633224,10.3960921 L24.9763425,13.4815453 L22.0235288,13.4815453 Z M23.4999297,3.5037898 L21.1143826,2.06813126 C22.6827814,1.7117807 24.3171173,1.7117807 25.8853984,2.06813126 L23.4999297,3.5037898 Z M16.6774087,8.79787922 L16.0518703,4.89544981 L16.0503372,4.89544981 C17.0284818,3.89677326 18.215113,3.10344822 19.5320876,2.5667187 L22.8421269,4.5581778 L22.8421269,7.58056151 L20.0334446,9.50309458 L16.6774087,8.79787922 Z M30.3224508,8.79787922 L26.9648819,9.50324475 L24.1561995,7.58071168 L24.1561995,4.55979208 L27.4662389,2.56833298 L27.4677723,2.56686662 C28.7847469,3.10359613 29.9713781,3.89695872 30.9495227,4.89559773 L30.3224508,8.79787922 Z M15.4281373,9.1014353 L13.2894223,11.2498175 C13.3476824,9.453386 13.9272062,7.70831117 14.9635951,6.21100964 L15.4281373,9.1014353 Z M18.5388741,18.4822825 L19.9232771,20.7245182 L19.9217441,20.7245182 C18.4499352,20.198075 17.1237765,19.3504275 16.0521034,18.2506144 L18.5388741,18.4822825 Z M30.9495592,18.2505806 L30.9480261,18.2505806 C29.8748223,19.3504313 28.5501943,20.1980412 27.0783854,20.7244844 L28.4627885,18.4822487 L30.9495592,18.2505806 Z" id="Shape" fill="#97BEED"></path>
                        <path d="M25.9167368,24.074816 C25.5119603,24.1514467 25.1042177,24.2045019 24.6935841,24.2339741 C24.8021127,25.1579796 24.7947801,26.0923223 24.6715847,27.0148565 C24.5073238,26.4003241 24.0644012,25.8978028 23.4777549,25.6590297 C22.8192469,25.4202905 22.1504514,25.7577683 21.4963736,25.5720806 C21.0432012,25.4173403 20.680926,25.0695593 20.5064151,24.6230245 C20.3949505,24.3857567 20.3392219,23.8861818 20.1529594,23.7505916 C20.0106962,23.6474313 19.0969961,23.3806913 18.8784821,23.286363 C19.0706092,24.494791 19.4900585,25.922827 20.6369566,26.5550532 C21.1634552,26.8217932 21.7589246,26.9205319 22.3426423,26.8350579 C22.7092953,26.7952675 23.0730122,26.705372 23.3296723,27.0369568 C23.5423329,27.3832778 23.6185951,27.7959075 23.5452652,28.1952837 C23.4308683,29.7264648 22.9908705,31.2163727 22.2531792,32.563296 C21.399623,33.9471161 20.1896487,35.0744692 18.7509105,35.8260631 C17.3928198,36.5864851 15.7355676,37.280621 14.159113,37.2923918 C13.7983246,37.295339 11.9987905,37.3380752 12.0882611,36.720604 C12.1278602,36.4509175 13.5049977,35.4532089 13.8848817,35.1496211 C14.4128445,34.7281369 14.9643108,34.3361552 15.4893451,33.9102193 C16.5276996,33.067251 17.5645898,31.9089242 17.2727497,30.4558753 C17.0923555,29.5569204 16.4441236,28.879007 15.7665425,28.3145759 C15.0185638,27.7044576 14.1943305,27.1945418 13.3158442,26.798146 C12.3977475,26.358968 11.437112,26.0156161 10.450082,25.7709576 C9.5202336,25.5528513 8.42616182,25.4541126 7.58871256,26.0111719 C7.72510735,25.9212764 7.61657798,25.4600206 7.59897897,25.3362012 L7.59751207,25.3362012 C7.55644496,25.0090379 7.47285021,24.6892615 7.34818835,24.3842024 C7.02699906,23.6311371 6.36555119,23.2244042 5.79944226,22.677667 C6.91994598,22.4315598 8.07416543,23.4439743 8.96879627,22.3239779 C9.34864267,21.8494499 9.44250607,21.2157523 9.8164954,20.7368102 C10.2124863,20.2829187 10.7258065,19.9483949 11.2977725,19.7685889 C11.802307,19.6285884 12.2774811,19.4045853 12.7057235,19.1039553 C12.8685164,18.980166 13.0151798,18.8372153 13.142789,18.6751144 C13.2923847,18.4599546 13.2249195,18.4068993 13.091457,18.1814212 C12.9066625,17.8660475 12.736537,17.5447809 12.5796011,17.2131998 L12.5796011,17.2146734 C12.4578715,16.8698276 12.3170764,16.5338173 12.1557515,16.2066503 C12.0486872,16.0401203 12.0457549,16.0445418 11.8169647,15.9914904 C11.6380386,15.9516999 11.4547121,15.9310671 11.2699288,15.9310671 C10.931142,15.9354883 10.5952763,15.9944368 10.2755775,16.1093867 C10.9590157,15.484555 10.7522159,14.6061989 10.0834504,14.0742129 C10.5586245,13.951895 11.0411575,13.8619995 11.5280832,13.8045264 C11.4650183,13.3963221 11.4210189,12.9851374 11.4004891,12.5725191 C7.39965553,13.0676837 3.85612447,15.40056 1.80577237,18.8857267 C-0.244542192,22.3725158 -0.567207015,26.6182177 0.931678842,30.3761872 C2.4305647,34.1355903 5.58092075,36.9829096 9.46010734,38.0822694 C13.3377921,39.1816669 17.5045761,38.4094327 20.738358,35.9925426 C23.9150333,33.5786291 25.8452778,29.8589146 25.9947084,25.8594934 C26.0123078,25.262655 25.9859089,24.6672502 25.9169782,24.0748258 L25.9167368,24.074816 Z M4.28723043,18.5719806 C4.62161691,17.9456398 5.07921225,17.3930172 5.63503376,16.9523678 C5.87995716,16.7504689 6.11460064,16.5352977 6.33461645,16.3054281 C6.58100787,15.9826864 6.8435438,15.6746733 7.12366973,15.3799513 C7.443391,15.0807889 8.10044981,14.5826702 8.56976681,14.6519367 L8.56976681,14.6534103 C8.68123147,14.6814107 8.78829207,14.7256232 8.88802381,14.7830963 C9.10948136,14.8685702 9.30894484,14.9997313 9.47613432,15.1691926 C9.32800662,15.3386691 8.98188721,15.4123534 8.79562468,15.5273032 C8.48616831,15.7041477 8.25444586,15.9915319 8.14590222,16.3319411 C8.07403665,16.63405 8.13123588,16.9538301 8.30429859,17.2132021 C8.47736017,17.4710989 8.75014974,17.6449856 9.05667005,17.6921442 C9.690248,17.820355 10.1815666,17.4180361 10.7579254,17.2514948 L10.7564589,17.2514948 C11.0805805,17.130652 11.4384328,17.13802 11.7567048,17.2736005 C11.9019002,17.3296022 12.0148292,17.4460234 12.0690935,17.5933957 C12.1233578,17.7392929 12.1130929,17.9028727 12.0397608,18.0399305 C11.8197675,18.361197 11.40179,18.4304786 11.0585879,18.5365664 C9.96301429,18.8150961 9.03466772,19.5445896 8.50081025,20.5437469 C8.38201298,20.9018576 8.22068808,21.2437683 8.02270764,21.5635409 C7.78071653,21.8464921 7.3935225,21.70207 7.08700218,21.615121 C6.36248937,21.4073292 5.56025767,21.2290246 4.95014557,21.8067016 C4.64215723,22.0763881 4.49107845,22.484615 4.54683331,22.891348 C4.60256564,23.2966096 4.85775395,23.6473559 5.22587869,23.8242193 C5.50600087,23.9362227 5.75827189,24.1086456 5.96507174,24.328212 C6.20999514,24.681901 6.34784668,25.0989711 6.36106265,25.5292833 C4.37085821,23.9759943 3.17995694,20.9888594 4.28728224,18.5720787 L4.28723043,18.5719806 Z M1.24399128,25.5220171 L1.24252476,25.5220171 C1.24399128,23.5413586 1.74116469,21.591636 2.68715757,19.8528065 C2.51703204,21.6890467 3.03328074,23.5223443 4.13618319,24.9961051 C4.99266794,26.0984454 6.10438605,26.9723497 7.37593475,27.5426661 C7.12661103,27.8713008 6.9183319,28.2294076 6.75703704,28.6081473 C6.62064225,29.0208033 6.58837577,29.461415 6.66317364,29.8887845 C6.8318349,30.8334266 7.54755459,31.3919723 8.213384,31.9976388 C9.62426353,33.2812187 8.97600535,35.3989388 9.93664093,36.9330626 C7.43754668,36.2610723 5.23033007,34.7785211 3.6579304,32.713694 C2.08571845,30.6504892 1.23655505,28.1215843 1.24241212,25.5222058 L1.24399128,25.5220171 Z M10.9513441,36.2356822 C10.4101653,35.3780004 10.5128143,34.2226163 10.2972288,33.263223 C10.122703,32.417312 9.67979537,31.6495333 9.03593,31.0762364 C8.41849656,30.5265565 7.61626485,29.9650681 7.91249774,29.0189547 C8.13982363,28.2953541 9.02564257,27.7736675 8.51821703,26.9233425 L8.51821703,26.9248161 C9.02421585,26.7789189 9.56242858,26.7877621 10.0640346,26.949869 C11.2006453,27.2195555 12.2932903,27.652833 13.3067147,28.2379007 C13.8112492,28.5296951 14.2981375,28.8509617 14.7674545,29.1987653 C15.2118413,29.4625588 15.5946163,29.8177117 15.8908867,30.2421385 C16.5537876,31.4240446 15.3453151,32.365744 14.5181533,33.0230208 C13.9358998,33.4857781 13.3536464,33.9484977 12.7728948,34.411255 C12.1290669,34.9255848 11.2652233,35.4472714 10.9513441,36.2356867 L10.9513441,36.2356822 Z" id="Shape" fill="#97BEED"></path>
                    </g>
                </g>
            </g>
        </g>
    </g>
</svg>