<?xml version="1.0" encoding="UTF-8"?>
<svg width="65px" height="50px" viewBox="0 0 65 50" version="1.1" xmlns="http://www.w3.org/2000/svg" xmlns:xlink="http://www.w3.org/1999/xlink">
    <!-- Generator: Sketch 52.4 (67378) - http://www.bohemiancoding.com/sketch -->
    <title>np_world-cup_1777475_FFFFFF</title>
    <desc>Created with Sketch.</desc>
    <defs>
        <linearGradient x1="0%" y1="6.79995888%" x2="99.0540462%" y2="100%" id="linearGradient-1">
            <stop stop-color="#438AD0" offset="0%"></stop>
            <stop stop-color="#1669D2" offset="48.4376835%"></stop>
            <stop stop-color="#326CCC" offset="100%"></stop>
        </linearGradient>
        <filter x="-21.1%" y="-20.5%" width="141.8%" height="140.0%" filterUnits="objectBoundingBox" id="filter-2">
            <feMorphology radius="1.5" operator="dilate" in="SourceAlpha" result="shadowSpreadOuter1"></feMorphology>
            <feOffset dx="0" dy="0" in="shadowSpreadOuter1" result="shadowOffsetOuter1"></feOffset>
            <feGaussianBlur stdDeviation="2" in="shadowOffsetOuter1" result="shadowBlurOuter1"></feGaussianBlur>
            <feComposite in="shadowBlurOuter1" in2="SourceAlpha" operator="out" result="shadowBlurOuter1"></feComposite>
            <feColorMatrix values="0 0 0 0 0.435294118   0 0 0 0 0.639215686   0 0 0 0 0.894117647  0 0 0 0.6 0" type="matrix" in="shadowBlurOuter1" result="shadowMatrixOuter1"></feColorMatrix>
            <feMerge>
                <feMergeNode in="shadowMatrixOuter1"></feMergeNode>
                <feMergeNode in="SourceGraphic"></feMergeNode>
            </feMerge>
        </filter>
    </defs>
    <g id="Symbols" stroke="none" stroke-width="1" fill="none" fill-rule="evenodd">
        <g id="btn_primary" transform="translate(-5.000000, 0.000000)" fill-rule="nonzero">
            <g id="btn-primary">
                <g id="BG">
                    <g id="np_world-cup_1777475_FFFFFF" filter="url(#filter-2)" transform="translate(9.000000, -4.572519)">
                        <path d="M25.0383861,32.6470792 C23.8823455,32.109174 22.6154782,31.8496703 21.3391287,31.8874178 C20.5605634,31.8402334 19.8245168,32.2460193 19.4470416,32.9325713 C19.012945,33.9376218 19.7726125,34.6830901 20.4827129,35.2752733 C21.1668792,35.8579984 21.6623079,36.6318287 21.907697,37.4976663 C22.1813636,38.3682149 22.976405,39.3024812 23.9861663,38.7622386 C24.3777984,38.4814937 24.6844653,38.0992713 24.8756188,37.6557832 L25.7367455,36.1883406 C26.1118593,35.6858274 26.3477723,35.0913069 26.4209119,34.4660871 C26.3642906,33.637997 25.8216684,32.9231495 25.0383861,32.6471396 L25.0383861,32.6470792 Z M24.6420371,35.0464327 L23.3963688,37.1697158 L23.3963688,37.1720749 C23.2029143,36.4713601 22.8938556,35.8060977 22.4833619,35.2068482 C22.2474429,34.8671205 21.9737703,34.5580739 21.667049,34.282064 C21.3579904,34.0720911 21.0819624,33.8196599 20.8483807,33.529469 C21.2706819,33.0717817 22.7924084,33.531828 23.2736441,33.64979 C23.7478496,33.7394418 24.2031995,33.9069442 24.6184223,34.1475862 C25.0265666,34.4188973 24.8708596,34.6548163 24.6420142,35.0464605 L24.6420371,35.0464327 Z" id="Shape" fill="#77B2FB"></path>
                        <path d="M38.582802,0 C33.8903317,0.00471844059 29.3935446,1.87088812 26.0741782,5.19031485 C22.7571069,8.50738614 20.8909901,13.0043545 20.8862792,17.6965228 C20.8862792,18.2485788 20.9098717,18.7888455 20.9570573,19.2795634 C20.9570573,19.307874 20.9617755,19.3361847 20.9664942,19.3644923 C21.261396,22.4904705 22.384412,25.4795913 24.2198477,28.0252844 C24.2340033,28.0488763 24.250518,28.0701091 24.2693918,28.0913455 C26.7866987,31.5570515 30.4762927,33.9964475 34.6520749,34.9541475 C34.8879939,35.0084097 35.123919,35.0555948 35.3598561,35.0957038 L35.3622152,35.0957038 C37.4902092,35.4920528 39.6724993,35.4920528 41.800433,35.0980628 C42.0387135,35.0555972 42.276994,35.0107724 42.5105696,34.9541511 C46.6840568,33.9986858 50.3693023,31.5639403 52.8866092,28.1028244 C52.905483,28.0792325 52.9243568,28.05564 52.9597428,28.0060941 C54.7857567,25.4699436 55.9016943,22.4926001 56.1966081,19.3833515 C56.2013269,19.3550409 56.206045,19.3290893 56.206045,19.3007781 C56.2555885,18.7911865 56.2791786,18.2509137 56.2791786,17.6965385 C56.2744599,13.0040682 54.4082905,8.50728105 51.0912796,5.19033055 C47.7718529,1.87090382 43.2754281,0.0047869901 38.5826558,1.57029703e-05 L38.582802,0 Z M54.2954356,17.177298 L51.0043347,13.7233089 L51.7191822,9.07094158 C53.314,11.4797168 54.2058079,14.2871663 54.2954356,17.177298 Z M44.4551089,16.2760079 L49.6265198,15.1412267 L54.1515119,19.892704 L54.1491528,19.892704 C53.8330158,22.1788149 53.0096607,24.3657554 51.7403776,26.2958921 L46.1207073,26.8385143 L42.6573568,21.6152232 L44.4551089,16.2760079 Z M36.1319307,22.7474436 L41.0367535,22.7474436 L44.4576455,27.9117881 L41.3529267,33.1704713 C39.5197861,33.4984037 37.6442475,33.4984037 35.8134624,33.1704713 L32.711099,27.9094327 L36.1319307,22.7474436 Z M27.5393861,15.1387505 L32.710797,16.2735317 L34.510901,21.6148366 L31.0475505,26.8381277 L25.4278802,26.2955055 L25.4255211,26.2955055 C24.156238,24.3680263 23.3305033,22.1786699 23.0143904,19.8923174 L27.5393861,15.1387505 Z M36.310703,20.7678426 L34.6380347,15.8040129 L38.3514248,13.1475535 L38.3514248,13.2938266 L38.5967837,13.0484677 L38.813835,13.2301269 L38.813835,13.1475535 L42.527225,15.8040129 L40.8545567,20.7678426 L36.310703,20.7678426 Z M38.5826208,4.71578317 L34.9116891,2.40611782 C37.3251752,1.83282653 39.8401267,1.83282653 42.2534317,2.40611782 L38.5826208,4.71578317 Z M28.0839772,13.2328327 L27.1213851,6.95466436 L27.1190261,6.95466436 C28.6242162,5.34800891 30.45023,4.0717198 32.4768191,3.20823762 L37.5703795,6.41206634 L37.5703795,11.2744307 L33.2483182,14.3673723 L28.0839772,13.2328327 Z M49.0812644,13.2328327 L43.9145644,14.3676139 L39.592503,11.2746723 L39.592503,6.41466337 L44.6860634,3.21083465 L44.688423,3.20847558 C46.7150121,4.07195776 48.541026,5.34830727 50.0462161,6.95490232 L49.0812644,13.2328327 Z M26.1615713,13.721189 L22.8704703,17.1774732 C22.9601222,14.2874019 23.8519059,11.4799524 25.4467238,9.07111673 L26.1615713,13.721189 Z M30.9484406,28.8129514 L33.0787901,32.4202256 L33.076431,32.4202256 C30.8115795,31.573292 28.7708578,30.2096098 27.1217439,28.4402474 L30.9484406,28.8129514 Z M50.0462723,28.4401931 L50.0439132,28.4401931 C48.3924439,30.2096158 46.3540776,31.5732376 44.0892261,32.4201713 L46.2195756,28.812897 L50.0462723,28.4401931 Z" id="Shape" fill="#97BEED"></path>
                        <path d="M42.1449604,37.195505 C41.4938307,37.3181814 40.8379297,37.4031163 40.1773782,37.4502977 C40.351959,38.9295175 40.3401637,40.4252858 40.1419898,41.9021502 C39.8777571,40.9183591 39.165265,40.1138839 38.2215769,39.7316373 C37.1622908,39.3494451 36.0864561,39.8897058 35.0342967,39.5924426 C34.3053165,39.3447222 33.7225551,38.7879673 33.4418343,38.0731198 C33.2625306,37.6932831 33.1728847,36.8935248 32.87326,36.6764614 C32.6444133,36.5113145 31.1746213,36.0842963 30.8231164,35.9332881 C31.132175,37.8678337 31.8069075,40.1539446 33.6518253,41.1660614 C34.498759,41.5930795 35.4566402,41.751148 36.3956174,41.6143148 C36.985421,41.550615 37.5705015,41.4067034 37.9833689,41.9375302 C38.3254581,42.4919477 38.4481345,43.1525173 38.330175,43.7918698 C38.1461543,46.2431035 37.4383671,48.6282639 36.2517057,50.7845233 C34.8786621,52.99985 32.932279,54.8046045 30.6179027,56.0078144 C28.4332572,57.2251569 25.767376,58.3363837 23.2314671,58.3552272 C22.6510974,58.3599454 19.7563394,58.4283608 19.9002631,57.4398649 C19.9639628,57.0081298 22.1792473,55.4109203 22.7903344,54.9249134 C23.6396235,54.2501688 24.5267206,53.622654 25.3712988,52.9407827 C27.0416116,51.5912936 28.7095691,49.736954 28.2401107,47.4108005 C27.9499258,45.9716837 26.9071701,44.8864272 25.8172027,43.9828421 C24.6139928,43.0061173 23.2881186,42.1898045 21.874972,41.5552233 C20.3981077,40.852153 18.8528146,40.3024886 17.2650631,39.9108203 C15.7692948,39.5616587 14.0093542,39.4035902 12.6622206,40.295374 C12.8816273,40.1514623 12.7070453,39.4130482 12.6787352,39.2148284 L12.6763756,39.2148284 C12.6103144,38.69108 12.4758426,38.1791571 12.2753096,37.6907948 C11.7586396,36.4852294 10.6946245,35.8340997 9.783973,34.9588403 C11.5864324,34.5648528 13.4431275,36.1856047 14.8822443,34.3926274 C15.493271,33.632966 15.6442611,32.6184938 16.2458661,31.851766 C16.8828631,31.1251413 17.7085978,30.5896096 18.628671,30.3017621 C19.440273,30.0776384 20.2046453,29.7190369 20.8935225,29.237765 C21.1553937,29.0395936 21.3913187,28.8107469 21.5965928,28.5512433 C21.8372348,28.2067986 21.7287091,28.1218637 21.5140193,27.7609007 C21.2167561,27.256026 20.9430895,26.7417175 20.6906401,26.2108967 L20.6906401,26.2132558 C20.4948241,25.6611998 20.2683389,25.1232885 20.0088292,24.599534 C19.8366039,24.3329399 19.831887,24.3400183 19.4638516,24.2550894 C19.1760282,24.1913897 18.8811265,24.1583591 18.5838813,24.1583591 C18.0389037,24.1654369 17.4986249,24.2598063 16.9843526,24.443827 C18.0837417,23.4435478 17.7510803,22.0374072 16.675294,21.1857626 C17.4396663,20.9899466 18.2158762,20.8460349 18.9991524,20.7540276 C18.8977052,20.1005424 18.8269271,19.442286 18.7939025,18.7817345 C12.3581005,19.5744325 6.65792231,23.309082 3.35969458,28.8884078 C0.0615272574,34.4703306 -0.457516307,41.2671801 1.95361439,47.2832296 C4.36474508,53.3015741 9.43245597,57.859784 15.6725748,59.6197246 C21.9102778,61.3797256 28.6130302,60.143473 33.8149411,56.2743276 C38.9249896,52.4099474 42.0300104,46.4551395 42.2703867,40.0525553 C42.2986973,39.09709 42.2562316,38.1439197 42.1453487,37.1955207 L42.1449604,37.195505 Z M7.35140594,28.3861386 C7.88930515,27.3834436 8.6254,26.4987624 9.51950297,25.7933366 C9.9134905,25.4701212 10.2909416,25.1256584 10.6448624,24.7576653 C11.0412114,24.2409953 11.4635307,23.747904 11.9141455,23.2760901 C12.4284541,22.7971676 13.4854089,21.9997406 14.2403594,22.1106277 L14.2403594,22.1129868 C14.4196632,22.1578121 14.5918825,22.2285909 14.7523125,22.3205982 C15.1085525,22.4574314 15.4294125,22.6674043 15.698356,22.9386912 C15.4600755,23.2100023 14.9033026,23.3279618 14.6036778,23.5119825 C14.1058816,23.795089 13.7331293,24.2551558 13.5585244,24.8001093 C13.4429203,25.2837487 13.5349319,25.7956776 13.8133232,26.2109004 C14.0917127,26.6237616 14.5305261,26.902133 15.0235994,26.9776281 C16.0427826,27.182878 16.8331251,26.5388146 17.7602648,26.2722023 L17.7579057,26.2722023 C18.2792926,26.0787478 18.8549393,26.0905431 19.3669166,26.3075908 C19.6004801,26.3972427 19.7821393,26.5836188 19.8694297,26.8195439 C19.9567201,27.0531074 19.9402079,27.3149786 19.8222447,27.5343914 C19.4683602,28.0486999 18.7959952,28.1596112 18.243915,28.3294449 C16.4815586,28.7753367 14.9882061,29.9431666 14.1294348,31.5426953 C13.9383357,32.1159866 13.678826,32.6633439 13.3603517,33.1752607 C12.9710811,33.628231 12.3482348,33.3970289 11.8551616,33.2578342 C10.6896992,32.9251849 9.39921701,32.6397411 8.41778137,33.5645313 C7.92234661,33.9962663 7.67931899,34.6497877 7.76900711,35.3009174 C7.85865899,35.9496917 8.26915879,36.5111937 8.86132988,36.7943303 C9.31193869,36.9736341 9.71774572,37.2496621 10.0504071,37.601161 C10.4443946,38.1673739 10.6661447,38.8350521 10.6874041,39.5239293 C7.48593087,37.0373036 5.57022889,32.2552659 7.35148929,28.3862956 L7.35140594,28.3861386 Z M2.45600495,39.512297 L2.45364588,39.512297 C2.45600495,36.341505 3.25576568,33.2202376 4.7775043,30.4365842 C4.50383776,33.3761802 5.33428331,36.3110653 7.10842905,38.6703762 C8.4861835,40.4350881 10.2745102,41.834102 12.3199429,42.7471089 C11.918877,43.2732128 11.583836,43.846498 11.3243746,44.4528139 C11.1049679,45.1134257 11.0530635,45.8187911 11.1733845,46.5029574 C11.4446956,48.0152139 12.5960132,48.9093772 13.6670766,49.8789752 C15.936639,51.9338297 14.8938409,55.3240406 16.439134,57.7799851 C12.4190528,56.7042109 8.86849044,54.3308277 6.3391043,51.0252921 C3.81002014,47.7223535 2.44404291,43.6738861 2.45346469,39.512599 L2.45600495,39.512297 Z M18.071401,56.6635644 C17.2008525,55.2905208 17.3659752,53.4408921 17.0191812,51.9050208 C16.7384362,50.5508208 16.0259683,49.321701 14.9902366,48.4039228 C13.9970238,47.5239525 12.7065416,46.6250782 13.1830663,45.1104663 C13.5487462,43.9520703 14.9736881,43.1169139 14.1574356,41.7556475 L14.1574356,41.7580066 C14.9713931,41.524443 15.8371703,41.5385999 16.6440614,41.7981132 C18.4724307,42.2298482 20.2300762,42.9234726 21.8602861,43.8600944 C22.6718881,44.3272215 23.455104,44.84153 24.2100545,45.3983211 C24.924902,45.8206223 25.5406396,46.3891785 26.0172248,47.068634 C27.0835772,48.9607211 25.1396099,50.4682667 23.8090248,51.5204865 C22.872403,52.2613043 21.9357812,53.0020617 21.0015752,53.7428795 C19.965904,54.5662587 18.5763119,55.4014152 18.071401,56.6635716 L18.071401,56.6635644 Z" id="Shape" fill="#97BEED"></path>
                    </g>
                </g>
            </g>
        </g>
    </g>
</svg>